<?xml version="1.0" encoding="UTF-8"?>
<svg version="1.1" xmlns="http://www.w3.org/2000/svg" width="635" height="347">
<path d="M0 0 C1.55301189 0.00081715 1.55301189 0.00081715 3.13739777 0.00165081 C4.3236525 -0.00254368 5.50990723 -0.00673817 6.73210907 -0.01105976 C8.04023056 -0.00544025 9.34835205 0.00017925 10.69611359 0.00596905 C12.08230936 0.00489656 13.4685047 0.00295838 14.85469818 0.00021648 C18.62529901 -0.00464037 22.39578191 0.00303425 26.16636848 0.01316953 C30.10658006 0.02193664 34.0467878 0.02019284 37.98700714 0.01980877 C44.60474375 0.02074604 51.22243458 0.02943837 57.84015656 0.04307842 C65.49844818 0.05880461 73.15668964 0.06407656 80.81499624 0.06334287 C88.17263837 0.0627331 95.5302641 0.06783386 102.88790131 0.07613468 C106.02343117 0.07967119 109.15895524 0.08149846 112.294487 0.08202839 C115.98474662 0.08303089 119.67496391 0.08911994 123.36520958 0.09919453 C125.37106009 0.10352236 127.37691929 0.10294692 129.38277435 0.10225201 C130.56902908 0.10651699 131.75528381 0.11078197 132.97748566 0.1151762 C134.53049755 0.11768997 134.53049755 0.11768997 136.11488342 0.12025452 C138.55744171 0.24888897 138.55744171 0.24888897 140.55744171 1.24888897 C140.55744171 2.23888897 140.55744171 3.22888897 140.55744171 4.24888897 C138.63556671 5.61607647 138.63556671 5.61607647 135.80744171 7.12388897 C130.08218619 10.31875606 124.59616814 13.76971693 119.11994171 17.37388897 C108.71941088 24.19397453 98.17695128 30.77552354 87.55744171 37.24888897 C86.8582663 37.76235378 86.15909088 38.2758186 85.43872833 38.80484295 C81.70454391 40.67634511 78.36314979 40.68889903 74.27887726 40.68126202 C73.4588472 40.69145367 72.63881714 40.70164532 71.79393768 40.71214581 C69.09394218 40.74224642 66.39430163 40.75153719 63.69416046 40.76060772 C61.81799391 40.77745659 59.94183864 40.79560711 58.06569672 40.8150053 C53.1354703 40.86248882 48.20528961 40.89230888 43.27490997 40.91844463 C38.24074018 40.94825842 33.20672786 40.99478597 28.17267609 41.03990459 C18.3010137 41.12591899 8.42931889 41.19327263 -1.44255829 41.24888897 C-1.63849579 41.87150616 -1.83443329 42.49412334 -2.03630829 43.13560772 C-5.45305956 53.69513642 -9.47008885 63.8211567 -13.44255829 74.24888897 C14.60744171 74.24888897 42.65744171 74.24888897 71.55744171 74.24888897 C70.43185089 83.25361551 70.43185089 83.25361551 68.99884796 87.88560772 C68.69527374 88.87496319 68.39169952 89.86431866 68.07892609 90.88365459 C67.76246124 91.89105694 67.4459964 92.89845928 67.11994171 93.93638897 C66.65104523 95.46489483 66.65104523 95.46489483 66.17267609 97.02427959 C64.7842057 101.51259084 63.31942098 105.89252098 61.55744171 110.24888897 C42.14324096 111.10527931 22.78607654 111.38253578 3.35755157 111.31755352 C-0.13700972 111.3070456 -3.63157928 111.30269919 -7.12615204 111.29771709 C-13.89830627 111.28721281 -20.67042995 111.27030992 -27.44255829 111.24888897 C-27.63594032 112.15197544 -27.63594032 112.15197544 -27.83322906 113.07330608 C-28.09363731 114.27070667 -28.09363731 114.27070667 -28.35930634 115.49229717 C-28.52947769 116.27997982 -28.69964905 117.06766247 -28.87497711 117.87921429 C-29.74128275 121.49607583 -30.97440124 124.94885555 -32.25505829 128.43638897 C-32.49031219 129.08929913 -32.7255661 129.74220928 -32.96794891 130.41490459 C-33.78949441 132.69410038 -34.61625124 134.97141513 -35.44255829 137.24888897 C-37.09255829 141.86888897 -38.74255829 146.48888897 -40.44255829 151.24888897 C-4.47255829 151.24888897 31.49744171 151.24888897 68.55744171 151.24888897 C68.88744171 152.23888897 69.21744171 153.22888897 69.55744171 154.24888897 C51.00087685 161.53562088 32.37341126 168.65667429 13.55744171 175.24888897 C20.73750615 174.83449703 25.71916371 173.05482266 32.09564972 169.85382366 C71.11350373 151.56884589 107.94013495 151.44705855 150.30765447 151.95282755 C160.16765236 152.0665132 170.02675666 152.06281106 179.88728219 152.05503384 C197.47565529 152.0441902 215.06240869 152.12189797 232.65021515 152.25792217 C249.66005627 152.38929187 266.66917313 152.474822 283.67951202 152.5020628 C285.26057776 152.5046159 285.26057776 152.5046159 286.87358421 152.50722059 C291.11237582 152.5138754 295.35116776 152.52018584 299.58996055 152.52604724 C332.83732319 152.57220006 366.08438765 152.67240999 399.33107328 152.89346254 C401.84267964 152.90956529 404.35429018 152.92398744 406.86590958 152.93789387 C410.75533638 152.95967024 414.64470351 152.98612449 418.53407389 153.01631228 C419.93310517 153.02653213 421.33214806 153.03529946 422.73119873 153.042385 C446.93823934 153.16942072 446.93823934 153.16942072 451.55744171 156.24888897 C443.88251474 157.16612856 436.26778403 157.46075294 428.54328156 157.59019756 C426.58694608 157.62808306 424.63061062 157.66596927 422.67427564 157.70388007 C420.57763051 157.74374023 418.48095798 157.78161853 416.3842659 157.818923 C411.93056308 157.89827928 407.47698731 157.98365002 403.02341461 158.06996441 C397.464073 158.17737386 391.90471226 158.28364687 386.3453182 158.38830745 C368.86098942 158.7176044 351.37711181 159.06911674 333.89337921 159.42857647 C333.06498881 159.44559518 332.23659842 159.46261389 331.38310528 159.48014832 C191.3808883 156.69323738 191.3808883 156.69323738 29.55744171 199.24888897 C27.01748371 199.49498463 27.01748371 199.49498463 23.91970062 199.489398 C22.74600922 199.49214733 21.57231781 199.49489666 20.36306 199.4977293 C18.42960976 199.48694347 18.42960976 199.48694347 16.45709991 199.47593975 C15.08721678 199.47537566 13.71733304 199.47569216 12.34745026 199.47682476 C8.62661936 199.47739934 4.90591703 199.46562801 1.18511605 199.45167685 C-2.70263504 199.43918706 -6.59038898 199.43800037 -10.47815704 199.43562603 C-17.84106521 199.4294061 -25.20391408 199.41298836 -32.56679612 199.39292705 C-40.94880187 199.37058399 -49.33081043 199.35957863 -57.71283853 199.34953618 C-74.95611276 199.32862257 -92.19932926 199.29343665 -109.44255829 199.24888897 C-110.44255829 196.24888897 -110.44255829 196.24888897 -109.54973602 194.07921124 C-109.07995331 193.24961895 -108.61017059 192.42002666 -108.12615204 191.56529522 C-107.61221893 190.64377666 -107.09828583 189.72225811 -106.56877899 188.77281475 C-106.01150116 187.79554424 -105.45422333 186.81827374 -104.88005829 185.81138897 C-103.75610187 183.80054171 -102.63368926 181.78883071 -101.51287079 179.77623272 C-100.97436493 178.8131419 -100.43585907 177.85005108 -99.88103485 176.85777569 C-98.25183965 173.90299295 -96.728493 170.90916447 -95.25505829 167.87388897 C-92.63807974 162.51641666 -89.71785851 157.35796016 -86.76262665 152.18248272 C-83.99713801 147.313821 -81.47265194 142.37281706 -79.12224579 137.28795147 C-73.43126801 126.99125215 -67.14561977 121.49007417 -57.00505829 115.74888897 C-55.74883924 115.01623063 -54.49396153 114.28126778 -53.24040985 113.54405499 C-50.77706381 112.09731747 -48.3086485 110.65997082 -45.83562469 109.229846 C-41.39662702 106.63824813 -37.03560001 103.93485187 -32.69255829 101.18638897 C-32.03843964 100.77517803 -31.38432098 100.36396709 -30.71038055 99.94029522 C-29.2865201 99.04514984 -27.86429261 98.1474074 -26.44255829 97.24888897 C-30.65735494 98.57569657 -34.58827309 100.16806467 -38.57537079 102.06920147 C-39.71103485 102.60416241 -40.84669891 103.13912334 -42.01677704 103.69029522 C-44.39336977 104.81715052 -46.76836189 105.94738752 -49.14177704 107.08092022 C-50.27486298 107.61330303 -51.40794891 108.14568584 -52.57537079 108.69420147 C-54.12055389 109.42920879 -54.12055389 109.42920879 -55.69695282 110.17906475 C-58.44255829 111.24888897 -58.44255829 111.24888897 -62.44255829 111.24888897 C-61.85002418 107.4647795 -60.75899194 104.60199278 -58.92302704 101.24888897 C-58.40103729 100.28942364 -57.87904755 99.32995831 -57.34123993 98.34141827 C-56.49420502 96.81061626 -56.49420502 96.81061626 -55.63005829 95.24888897 C-54.76078705 93.66104595 -54.76078705 93.66104595 -53.87395477 92.0411253 C-49.52822936 84.13363932 -45.09079057 76.27900842 -40.57805634 68.46568584 C-35.46805018 59.61640854 -30.61933153 50.64777342 -25.95159149 41.55772686 C-20.89206093 31.70983833 -15.6946989 21.95497983 -10.25505829 12.31138897 C-9.70261444 11.32880108 -9.15017059 10.34621319 -8.58098602 9.33384991 C-8.06737518 8.43053936 -7.55376434 7.52722881 -7.02458954 6.59654522 C-6.57317596 5.80256329 -6.12176239 5.00858135 -5.65666962 4.19053936 C-3.98568604 1.51824247 -3.22071736 0.32818092 0 0 Z " fill="#5DEDFD" transform="translate(151.44255828857422,105.75111103057861)"/>
<path d="M0 0 C8.59793762 8.80265042 8.59793762 8.80265042 8.64453125 13.76953125 C7.07840089 16.71577649 4.85585406 17.42385823 1.875 18.8125 C0.82828125 19.31007812 -0.2184375 19.80765625 -1.296875 20.3203125 C-9.65964978 24.03474292 -9.65964978 24.03474292 -14.375 22.6875 C-14.705 21.6975 -15.035 20.7075 -15.375 19.6875 C-17.20368285 18.59557722 -17.20368285 18.59557722 -19.375 17.6875 C-20.79276157 16.85603081 -22.20938168 16.02261297 -23.625 15.1875 C-33.65317281 9.66874905 -44.43925061 9.15068089 -55.43798828 12.07348633 C-67.07927964 15.53996132 -77.2202644 22.05631481 -83.55078125 32.65625 C-89.31948939 43.56435267 -90.33471823 56.41118999 -87.5 68.3828125 C-84.04466989 77.45305405 -79.23507178 81.47893746 -70.625 85.5 C-59.59076038 90.2619833 -47.60900655 90.14044809 -36.28125 86.1484375 C-33.45745207 84.84707047 -33.45745207 84.84707047 -31.54582214 83.26281738 C-25.23101258 78.41365157 -20.15609969 77.77746707 -12.33203125 77.8203125 C-11.20480148 77.8098288 -10.07757172 77.79934509 -8.91618347 77.7885437 C-6.54710166 77.77576076 -4.17789242 77.77830274 -1.80883789 77.79541016 C1.81397108 77.81250694 5.43054175 77.75473387 9.05273438 77.69140625 C11.36197728 77.68818347 13.67123133 77.68933492 15.98046875 77.6953125 C17.59782173 77.66161057 17.59782173 77.66161057 19.24784851 77.62722778 C26.61055786 77.76378533 26.61055786 77.76378533 29.53823853 80.42962646 C31.1027832 82.56201172 31.1027832 82.56201172 32.33125305 84.67941284 C34.70457289 88.36315726 37.23971049 89.56549166 41.375 90.875 C50.58963447 92.85318758 57.88327178 90.96415326 66.625 87.6875 C67.615 87.0275 68.605 86.3675 69.625 85.6875 C73.51590415 85.96956981 76.24157497 88.32388175 79.3125 90.5625 C80.28574219 91.26117188 81.25898438 91.95984375 82.26171875 92.6796875 C84.625 94.6875 84.625 94.6875 85.625 97.6875 C72.26308375 109.39604782 57.2365974 112.70513386 39.93701172 111.8828125 C26.87558896 110.77941881 17.44978263 104.31641307 9.15625 94.640625 C7.625 92.6875 7.625 92.6875 6.625 90.6875 C1.6521088 91.20063597 -1.97840192 92.88222574 -6.1875 95.4375 C-7.4282682 96.1668661 -8.66915351 96.89603303 -9.91015625 97.625 C-11.06519952 98.31233979 -12.2201558 98.99982579 -13.375 99.6875 C-31.78239581 110.47901144 -51.95974571 114.73650517 -73.125 110.6875 C-88.57041209 106.476929 -101.15328094 98.53352936 -109.375 84.6875 C-110.98430889 81.42390154 -112.26022278 78.14947147 -113.375 74.6875 C-113.71337891 73.64722656 -113.71337891 73.64722656 -114.05859375 72.5859375 C-118.53609439 56.09638342 -114.51585387 38.2931496 -106.375 23.6875 C-94.99372066 5.6071132 -79.77047436 -4.57083532 -59.5390625 -10.421875 C-39.15005718 -15.03005104 -17.17581667 -12.83759493 0 0 Z " fill="#FEFEFE" transform="translate(416.375,145.3125)"/>
<path d="M0 0 C1.55301189 0.00081715 1.55301189 0.00081715 3.13739777 0.00165081 C4.3236525 -0.00254368 5.50990723 -0.00673817 6.73210907 -0.01105976 C8.04023056 -0.00544025 9.34835205 0.00017925 10.69611359 0.00596905 C12.08230936 0.00489656 13.4685047 0.00295838 14.85469818 0.00021648 C18.62529901 -0.00464037 22.39578191 0.00303425 26.16636848 0.01316953 C30.10658006 0.02193664 34.0467878 0.02019284 37.98700714 0.01980877 C44.60474375 0.02074604 51.22243458 0.02943837 57.84015656 0.04307842 C65.49844818 0.05880461 73.15668964 0.06407656 80.81499624 0.06334287 C88.17263837 0.0627331 95.5302641 0.06783386 102.88790131 0.07613468 C106.02343117 0.07967119 109.15895524 0.08149846 112.294487 0.08202839 C115.98474662 0.08303089 119.67496391 0.08911994 123.36520958 0.09919453 C125.37106009 0.10352236 127.37691929 0.10294692 129.38277435 0.10225201 C130.56902908 0.10651699 131.75528381 0.11078197 132.97748566 0.1151762 C134.53049755 0.11768997 134.53049755 0.11768997 136.11488342 0.12025452 C138.55744171 0.24888897 138.55744171 0.24888897 140.55744171 1.24888897 C140.55744171 2.23888897 140.55744171 3.22888897 140.55744171 4.24888897 C138.63556671 5.61607647 138.63556671 5.61607647 135.80744171 7.12388897 C130.08218619 10.31875606 124.59616814 13.76971693 119.11994171 17.37388897 C108.71941088 24.19397453 98.17695128 30.77552354 87.55744171 37.24888897 C86.8582663 37.76235378 86.15909088 38.2758186 85.43872833 38.80484295 C81.70454391 40.67634511 78.36314979 40.68889903 74.27887726 40.68126202 C73.4588472 40.69145367 72.63881714 40.70164532 71.79393768 40.71214581 C69.09394218 40.74224642 66.39430163 40.75153719 63.69416046 40.76060772 C61.81799391 40.77745659 59.94183864 40.79560711 58.06569672 40.8150053 C53.1354703 40.86248882 48.20528961 40.89230888 43.27490997 40.91844463 C38.24074018 40.94825842 33.20672786 40.99478597 28.17267609 41.03990459 C18.3010137 41.12591899 8.42931889 41.19327263 -1.44255829 41.24888897 C-1.63849579 41.87150616 -1.83443329 42.49412334 -2.03630829 43.13560772 C-5.45305956 53.69513642 -9.47008885 63.8211567 -13.44255829 74.24888897 C14.60744171 74.24888897 42.65744171 74.24888897 71.55744171 74.24888897 C70.43185089 83.25361551 70.43185089 83.25361551 68.99884796 87.88560772 C68.69527374 88.87496319 68.39169952 89.86431866 68.07892609 90.88365459 C67.76246124 91.89105694 67.4459964 92.89845928 67.11994171 93.93638897 C66.65104523 95.46489483 66.65104523 95.46489483 66.17267609 97.02427959 C64.7842057 101.51259084 63.31942098 105.89252098 61.55744171 110.24888897 C42.14324096 111.10527931 22.78607654 111.38253578 3.35755157 111.31755352 C-0.13700972 111.3070456 -3.63157928 111.30269919 -7.12615204 111.29771709 C-13.89830627 111.28721281 -20.67042995 111.27030992 -27.44255829 111.24888897 C-27.57451599 111.86553921 -27.70647369 112.48218945 -27.84243011 113.11752605 C-28.01839722 113.92714291 -28.19436432 114.73675976 -28.37566376 115.57091045 C-28.54887146 116.37318569 -28.72207916 117.17546093 -28.90053558 118.00204754 C-29.52554625 120.59289814 -30.42252514 122.90681936 -31.56755829 125.31138897 C-32.09736298 126.44254131 -32.09736298 126.44254131 -32.63787079 127.59654522 C-32.90341766 128.14181866 -33.16896454 128.68709209 -33.44255829 129.24888897 C-34.10255829 129.24888897 -34.76255829 129.24888897 -35.44255829 129.24888897 C-34.72415131 125.01109499 -33.44218058 121.10835946 -32.00505829 117.06138897 C-31.57322235 115.83033428 -31.14138641 114.59927959 -30.69646454 113.33092022 C-29.44255829 110.24888897 -29.44255829 110.24888897 -27.44255829 108.24888897 C-24.78466595 108.03661755 -22.22826143 107.9479406 -19.56804657 107.94591045 C-18.75487976 107.93747112 -17.94171295 107.92903179 -17.10390472 107.92033672 C-14.4068877 107.89447774 -11.70998033 107.88239808 -9.01287079 107.86998272 C-7.14200212 107.85381382 -5.27114194 107.83663447 -3.40029144 107.81848431 C1.53337429 107.77271469 6.46705131 107.73795788 11.4008255 107.70628643 C19.29148368 107.65449753 27.18201651 107.58923038 35.07252121 107.51807117 C37.8311453 107.49523916 40.58975361 107.47896424 43.34842682 107.46335125 C45.04033325 107.44994154 46.73223807 107.43632647 48.42414093 107.42247295 C49.19207977 107.41985958 49.96001862 107.41724621 50.75122833 107.41455364 C54.15347024 107.38146871 57.3049459 107.31545394 60.55744171 106.24888897 C60.88744171 104.26888897 61.21744171 102.28888897 61.55744171 100.24888897 C63.86744171 92.98888897 66.17744171 85.72888897 68.55744171 78.24888897 C47.10744171 78.24888897 25.65744171 78.24888897 3.55744171 78.24888897 C3.06244171 79.73388897 3.06244171 79.73388897 2.55744171 81.24888897 C1.24691115 82.27859156 -0.09142624 83.27307138 -1.44255829 84.24888897 C-3.12827069 85.89628973 -4.79887689 87.55954975 -6.44255829 89.24888897 C-7.76255829 88.58888897 -9.08255829 87.92888897 -10.44255829 87.24888897 C-10.44255829 87.90888897 -10.44255829 88.56888897 -10.44255829 89.24888897 C-9.45255829 89.74388897 -9.45255829 89.74388897 -8.44255829 90.24888897 C-10.06145788 91.27936934 -11.68788318 92.29803575 -13.31755829 93.31138897 C-14.22248016 93.87986553 -15.12740204 94.44834209 -16.05974579 95.03404522 C-16.84607391 95.43494366 -17.63240204 95.83584209 -18.44255829 96.24888897 C-19.43255829 95.75388897 -19.43255829 95.75388897 -20.44255829 95.24888897 C-20.11255829 94.58888897 -19.78255829 93.92888897 -19.44255829 93.24888897 C-20.90048798 93.94111553 -20.90048798 93.94111553 -22.38787079 94.64732647 C-27.06579341 96.86279062 -31.7535522 99.05700181 -36.44255829 101.24888897 C-37.87800995 101.92226299 -37.87800995 101.92226299 -39.34246063 102.60924053 C-42.30952869 103.99746168 -45.28162096 105.37437084 -48.25505829 106.74888897 C-49.20332489 107.19409893 -50.15159149 107.63930889 -51.12859344 108.09801006 C-52.02239716 108.5087376 -52.91620087 108.91946514 -53.83708954 109.34263897 C-54.62962128 109.71066631 -55.42215302 110.07869366 -56.23870087 110.45787334 C-58.44255829 111.24888897 -58.44255829 111.24888897 -62.44255829 111.24888897 C-61.85002418 107.4647795 -60.75899194 104.60199278 -58.92302704 101.24888897 C-58.40103729 100.28942364 -57.87904755 99.32995831 -57.34123993 98.34141827 C-56.49420502 96.81061626 -56.49420502 96.81061626 -55.63005829 95.24888897 C-55.05054413 94.19032696 -54.47102997 93.13176495 -53.87395477 92.0411253 C-49.52822936 84.13363932 -45.09079057 76.27900842 -40.57805634 68.46568584 C-35.46805018 59.61640854 -30.61933153 50.64777342 -25.95159149 41.55772686 C-20.89206093 31.70983833 -15.6946989 21.95497983 -10.25505829 12.31138897 C-9.70261444 11.32880108 -9.15017059 10.34621319 -8.58098602 9.33384991 C-8.06737518 8.43053936 -7.55376434 7.52722881 -7.02458954 6.59654522 C-6.57317596 5.80256329 -6.12176239 5.00858135 -5.65666962 4.19053936 C-3.98568604 1.51824247 -3.22071736 0.32818092 0 0 Z " fill="#63F1FD" transform="translate(151.44255828857422,105.75111103057861)"/>
<path d="M0 0 C0.69774895 -0.00203244 1.39549791 -0.00406488 2.11439077 -0.0061589 C5.42248894 -0.0159539 8.73029869 -0.03062422 12.03833663 -0.05518508 C33.79277342 -0.1359843 33.79277342 -0.1359843 38.52853012 3.02118683 C30.85360315 3.93842642 23.23887244 4.2330508 15.51436996 4.36249542 C13.55803449 4.40038092 11.60169903 4.43826712 9.64536405 4.47617793 C7.54871892 4.51603809 5.45204639 4.55391639 3.35535431 4.59122086 C-1.09834851 4.67057714 -5.55192428 4.75594788 -10.00549698 4.84226227 C-15.56483859 4.94967172 -21.12419933 5.05594473 -26.68359339 5.16060531 C-44.16792217 5.48990226 -61.65179978 5.84141459 -79.13553238 6.20087433 C-79.96392278 6.21789304 -80.79231318 6.23491175 -81.64580631 6.25244617 C-221.64802329 3.46553524 -221.64802329 3.46553524 -383.47146988 46.02118683 C-386.01142788 46.26728249 -386.01142788 46.26728249 -389.10921097 46.26169586 C-390.28290237 46.26444519 -391.45659378 46.26719452 -392.66585159 46.27002716 C-394.59930183 46.25924133 -394.59930183 46.25924133 -396.57181168 46.24823761 C-397.94169481 46.24767351 -399.31157855 46.24799002 -400.68146133 46.24912262 C-404.40229223 46.2496972 -408.12299456 46.23792586 -411.84379554 46.2239747 C-415.73154663 46.21148492 -419.61930057 46.21029823 -423.50706863 46.20792389 C-430.8699768 46.20170396 -438.23282568 46.18528622 -445.59570771 46.16522491 C-453.97771346 46.14288185 -462.35972202 46.13187649 -470.74175012 46.12183404 C-487.98502435 46.10092043 -505.22824085 46.06573451 -522.47146988 46.02118683 C-523.47146988 43.02118683 -523.47146988 43.02118683 -522.57522964 40.75287628 C-522.10915298 39.88880157 -521.64307632 39.02472687 -521.16287613 38.13446808 C-520.66336441 37.19667511 -520.16385269 36.25888214 -519.64920425 35.2926712 C-519.11617691 34.31620636 -518.58314957 33.33974152 -518.03396988 32.33368683 C-517.50480972 31.34562042 -516.97564957 30.35755402 -516.43045425 29.3395462 C-515.11967914 26.89512774 -513.79975878 24.45611966 -512.47146988 22.02118683 C-511.48146988 22.35118683 -510.49146988 22.68118683 -509.47146988 23.02118683 C-508.02636724 23.11382231 -506.57738734 23.15175087 -505.12932205 23.1548996 C-504.24222549 23.15916458 -503.35512894 23.16342957 -502.44115067 23.16782379 C-501.47026001 23.16737061 -500.49936935 23.16691742 -499.49905777 23.1664505 C-497.96186584 23.17148842 -497.96186584 23.17148842 -496.39361954 23.17662811 C-492.99377616 23.18615251 -489.59398203 23.18808248 -486.19412613 23.18915558 C-483.82819473 23.19236893 -481.46226353 23.19573307 -479.09633255 23.19924164 C-474.12721675 23.2052379 -469.15811834 23.20708121 -464.18899918 23.20648956 C-457.84422387 23.20638833 -451.49956145 23.21999853 -445.15481281 23.23726177 C-440.26208874 23.24842669 -435.36939147 23.25040733 -430.47665596 23.24987984 C-428.13926622 23.2510548 -425.80187567 23.25544925 -423.46449852 23.2632122 C-420.17906521 23.27309552 -416.89387057 23.27010051 -413.60843277 23.26410675 C-412.65576019 23.26972626 -411.70308762 23.27534576 -410.72154617 23.28113556 C-399.6821707 23.23038947 -390.28801939 21.39555332 -380.37964249 16.52722931 C-343.22610517 -0.53107952 -309.57381511 -1.79452581 -269.29280818 -1.24311386 C-260.35890911 -1.12500181 -251.4259569 -1.12613492 -242.49141978 -1.13115767 C-226.53082596 -1.13716802 -210.57202373 -1.0554392 -194.61209488 -0.91484833 C-179.22891263 -0.77953657 -163.84642892 -0.68663059 -148.46268082 -0.65019989 C-147.03577626 -0.64679868 -147.03577626 -0.64679868 -145.58004536 -0.64332876 C-140.80105586 -0.63220008 -136.022065 -0.62190938 -131.24307275 -0.6120429 C-121.90178342 -0.59252441 -112.56051042 -0.5673952 -103.2192421 -0.53966522 C-102.3139592 -0.53697818 -101.40867631 -0.53429113 -100.4759606 -0.53152266 C-78.56653244 -0.46465985 -56.65759279 -0.32304273 -34.74873276 -0.15391853 C-31.95501545 -0.13241209 -29.16129412 -0.11146844 -26.3675712 -0.09070367 C-24.35691514 -0.07561261 -22.34626378 -0.05990027 -20.33561254 -0.04418039 C-13.55670406 0.00411034 -6.77896956 0.02443351 0 0 Z " fill="#FEFEFE" transform="translate(564.4714698791504,258.9788131713867)"/>
<path d="M0 0 C-0.62080684 2.93316994 -1.55044265 5.23881242 -3.0390625 7.8359375 C-3.45091797 8.56296875 -3.86277344 9.29 -4.28710938 10.0390625 C-4.72861328 10.80992188 -5.17011719 11.58078125 -5.625 12.375 C-8.72221617 17.8577316 -11.73148025 23.34374195 -14.5 29 C-19.60106586 39.37096132 -25.21286812 49.51910492 -31.25 59.375 C-33.20376506 62.57745237 -34.92559181 65.81228222 -36.5625 69.1875 C-42.86473646 82.04140181 -50.32422754 94.33320475 -57.4375 106.75 C-60.10286155 111.40608803 -62.70821388 116.0886014 -65.265625 120.8046875 C-67.5205462 124.95902431 -69.78855992 129.10604605 -72.0625 133.25 C-72.53018799 134.10231201 -72.99787598 134.95462402 -73.47973633 135.83276367 C-77.62743404 143.36817506 -81.87967853 150.84228525 -86.14038086 158.31420898 C-90.46590076 165.94546333 -94.5541103 173.6859357 -98.48632812 181.52709961 C-99.11571289 182.76085327 -99.11571289 182.76085327 -99.7578125 184.01953125 C-100.1202002 184.74245361 -100.48258789 185.46537598 -100.85595703 186.21020508 C-102 188 -102 188 -105 190 C-106.86890982 184.76878669 -104.83528278 180.60211928 -103.0546875 175.63671875 C-102.73359009 174.70967636 -102.41249268 173.78263397 -102.08166504 172.82749939 C-101.38685393 170.82510217 -100.68663552 168.82457481 -99.98162842 166.82574463 C-98.09912592 161.48722878 -96.25571114 156.13518817 -94.40625 150.78515625 C-94.03019623 149.70099426 -93.65414246 148.61683228 -93.26669312 147.49981689 C-89.8344637 137.58403272 -86.58115218 127.61571635 -83.375 117.625 C-78.29364751 101.82594238 -72.9936594 86.10847858 -67.57958984 70.42041016 C-67.29567383 69.59581299 -67.01175781 68.77121582 -66.71923828 67.92163086 C-66.19553584 66.40146069 -65.67015546 64.88186683 -65.14257812 63.36303711 C-63.27390485 57.93934226 -61.65251748 52.50839161 -60 47 C-81.12 47 -102.24 47 -124 47 C-124 46.01 -124 45.02 -124 44 C-123.45214844 43.80591553 -122.90429688 43.61183105 -122.33984375 43.41186523 C-105.97221665 37.59836353 -89.7011006 31.54477738 -73.453125 25.40600586 C-65.11496163 22.26043575 -56.76128613 19.18212909 -48.34922791 16.23965454 C-40.82313607 13.60159086 -33.34710532 10.83155683 -25.8737793 8.0480957 C-23.51227169 7.16879769 -21.14973974 6.29229183 -18.78710938 5.41601562 C-17.27598176 4.8543278 -15.76491171 4.29248509 -14.25390625 3.73046875 C-13.55197647 3.47009323 -12.85004669 3.20971771 -12.12684631 2.94145203 C-3.96080686 -0.10423176 -3.96080686 -0.10423176 0 0 Z " fill="#FEFEFE" transform="translate(159,73)"/>
<path d="M0 0 C7.43073767 6.06031474 12.17471617 12.55701011 13.6875 22.1875 C13.80572522 24.84619263 13.87253215 27.46712186 13.875 30.125 C13.88724609 30.81529297 13.89949219 31.50558594 13.91210938 32.21679688 C13.9246619 36.63110184 13.1640656 40.05918791 11.6875 44.1875 C0.10061598 44.21062228 -11.48626259 44.2284145 -23.07316494 44.23931217 C-28.45283762 44.24454125 -33.83249458 44.25163935 -39.2121582 44.26293945 C-44.39924843 44.27376745 -49.58632349 44.27977665 -54.77342415 44.28237724 C-56.7570628 44.28423165 -58.74070058 44.28785256 -60.72433281 44.29323006 C-63.49259136 44.30043932 -66.26078638 44.30149099 -69.02905273 44.30102539 C-69.85767319 44.30462067 -70.68629364 44.30821594 -71.5400238 44.31192017 C-77.19844784 44.30155216 -77.19844784 44.30155216 -78.3125 43.1875 C-78.70698478 30.25403479 -72.81049131 17.62119071 -64.3125 8.1875 C-47.7255485 -7.59106217 -19.57576994 -13.67371196 0 0 Z M-49.3125 21.1875 C-51.67555474 24.40930859 -51.67555474 24.40930859 -52.3125 28.1875 C-38.1225 28.1875 -23.9325 28.1875 -9.3125 28.1875 C-10.30273436 21.25585949 -10.54498042 19.74773612 -15.3125 15.1875 C-26.82847437 8.13690345 -40.21689278 12.30845485 -49.3125 21.1875 Z " fill="#FEFEFE" transform="translate(499.3125,176.8125)"/>
<path d="M0 0 C0.87454834 0.00523682 1.74909668 0.01047363 2.65014648 0.01586914 C3.59438477 0.0190918 4.53862305 0.02231445 5.51147461 0.02563477 C6.50469727 0.03401367 7.49791992 0.04239258 8.52124023 0.05102539 C9.51833008 0.05553711 10.51541992 0.06004883 11.54272461 0.06469727 C14.01478872 0.07652532 16.48673541 0.0930069 18.95874023 0.11352539 C20.12100776 4.33091013 19.71514462 7.26574935 18.69311523 11.49243164 C18.54411774 12.12007919 18.39512024 12.74772675 18.24160767 13.39439392 C17.74083287 15.4908657 17.22491899 17.58329746 16.70874023 19.67602539 C16.34815389 21.1706428 15.98830902 22.66543926 15.62915039 24.16040039 C12.15366385 38.55916687 8.52079184 52.92031915 4.90722656 67.28491211 C1.83138451 79.52613264 -1.13462333 91.78306422 -3.92016602 104.09399414 C-4.1111084 104.93752441 -4.30205078 105.78105469 -4.4987793 106.65014648 C-4.86917184 108.332082 -5.22363812 110.0175839 -5.56420898 111.70581055 C-5.73065918 112.51711426 -5.89710938 113.32841797 -6.06860352 114.16430664 C-6.20903076 114.8788501 -6.34945801 115.59339355 -6.49414062 116.32958984 C-7.04125977 118.11352539 -7.04125977 118.11352539 -9.04125977 120.11352539 C-11.19604492 120.34057617 -11.19604492 120.34057617 -13.83032227 120.30883789 C-14.77133789 120.30239258 -15.71235352 120.29594727 -16.68188477 120.28930664 C-17.66672852 120.27254883 -18.65157227 120.25579102 -19.66625977 120.23852539 C-21.15512695 120.22499023 -21.15512695 120.22499023 -22.67407227 120.21118164 C-25.13004111 120.18756656 -27.58553145 120.15463338 -30.04125977 120.11352539 C-31.82497366 114.89724657 -30.11411872 110.30500857 -28.76000977 105.17993164 C-28.38686394 103.71465279 -28.38686394 103.71465279 -28.00617981 102.21977234 C-27.47164438 100.12503569 -26.93236743 98.03150436 -26.38882446 95.93908691 C-24.96484268 90.45686217 -23.57423015 84.96614562 -22.17797852 79.47680664 C-21.90165085 78.39483002 -21.62532318 77.31285339 -21.34062195 76.1980896 C-19.23631312 67.9427576 -17.24910683 59.66922783 -15.35375977 51.36352539 C-12.93092256 40.80935137 -10.39631721 30.28644132 -7.78231812 19.77819824 C-7.37407482 18.13665047 -6.96701658 16.49480749 -6.56118774 14.85266113 C-5.99840789 12.577982 -5.43081214 10.30456406 -4.86157227 8.03149414 C-4.69212601 7.34457993 -4.52267975 6.65766571 -4.34809875 5.94993591 C-2.88651307 0.16053446 -2.88651307 0.16053446 0 0 Z " fill="#FEFEFE" transform="translate(549.041259765625,134.886474609375)"/>
<path d="M0 0 C0.93972656 -0.00128906 1.87945313 -0.00257813 2.84765625 -0.00390625 C3.83636719 -0.00003906 4.82507813 0.00382813 5.84375 0.0078125 C7.32681641 0.00201172 7.32681641 0.00201172 8.83984375 -0.00390625 C10.24943359 -0.00197266 10.24943359 -0.00197266 11.6875 0 C12.55568359 0.00112793 13.42386719 0.00225586 14.31835938 0.00341797 C16.34375 0.1328125 16.34375 0.1328125 17.34375 1.1328125 C16.81542619 8.26198191 14.98205375 15.04249103 13.2109375 21.94921875 C12.73191817 23.84400357 12.25290544 25.73879008 11.77420521 27.63365555 C11.26991244 29.62681843 10.76348786 31.61942896 10.25650024 33.61190796 C8.52353729 40.42540615 6.80916207 47.24358486 5.09765625 54.0625 C4.93026884 54.72903028 4.76288143 55.39556057 4.59042168 56.08228874 C1.15776385 69.76310485 -2.02674969 83.48387276 -5.03027344 97.26513672 C-5.98595835 101.6432471 -6.96695065 106.01504257 -7.96875 110.3828125 C-8.25363281 111.64609375 -8.53851562 112.909375 -8.83203125 114.2109375 C-9.65625 117.1328125 -9.65625 117.1328125 -11.65625 120.1328125 C-13.90283203 120.47338867 -13.90283203 120.47338867 -16.6640625 120.42578125 C-17.65019531 120.41611328 -18.63632812 120.40644531 -19.65234375 120.39648438 C-20.68488281 120.37134766 -21.71742188 120.34621094 -22.78125 120.3203125 C-24.34166016 120.30000977 -24.34166016 120.30000977 -25.93359375 120.27929688 C-28.50835178 120.24386443 -31.08195879 120.19192713 -33.65625 120.1328125 C-33.22125825 112.38738021 -31.58563501 105.12830835 -29.63764 97.63443756 C-29.09737127 95.55598052 -28.56577326 93.4754659 -28.03633118 91.39422607 C-27.47734785 89.19715318 -26.91787488 87.00021938 -26.35582638 84.80392838 C-24.52582804 77.65068583 -22.75530467 70.48331482 -20.99605942 63.31239319 C-20.48023577 61.20998792 -19.96342893 59.10782668 -19.44631958 57.0057373 C-18.5852549 53.50512213 -17.7249096 50.0043307 -16.86480713 46.503479 C-15.46536629 40.80785153 -14.06487354 35.11248265 -12.66428566 29.41713715 C-12.18607945 27.47210025 -11.70822895 25.5269759 -11.23039246 23.58184814 C-10.65043997 21.22258281 -10.06926336 18.86361794 -9.48666382 16.50500488 C-8.92142453 14.20964855 -8.36159332 11.91295521 -7.80654907 9.6151123 C-7.54014618 8.52234985 -7.27374329 7.4295874 -6.99926758 6.30371094 C-6.76411942 5.33028748 -6.52897125 4.35686401 -6.28669739 3.35394287 C-5.18387894 -0.53139887 -3.78448517 0.00491674 0 0 Z " fill="#FEFEFE" transform="translate(596.65625,134.8671875)"/>
<path d="M0 0 C0.88602402 0.00222061 1.77204803 0.00444122 2.68492126 0.00672913 C3.68588333 0.00680466 4.6868454 0.00688019 5.71813965 0.00695801 C6.80666733 0.01211929 7.89519501 0.01728058 9.01670837 0.02259827 C10.67928932 0.02472069 10.67928932 0.02472069 12.37545776 0.02688599 C15.93168281 0.03250418 19.48784596 0.04505977 23.04405212 0.05775452 C25.44834809 0.06276717 27.85264504 0.06733048 30.25694275 0.07142639 C36.16516716 0.08247952 42.07335522 0.09923535 47.98155212 0.12025452 C49.32481314 4.46762328 48.30087049 7.95585473 47.16905212 12.24525452 C46.99051697 12.97357483 46.81198181 13.70189514 46.6280365 14.45228577 C45.24424622 19.85756042 45.24424622 19.85756042 42.98155212 22.12025452 C40.84284973 22.36076355 40.84284973 22.36076355 38.16465759 22.3473053 C37.16377106 22.34715424 36.16288452 22.34700317 35.13166809 22.34684753 C33.5066185 22.33136368 33.5066185 22.33136368 31.84873962 22.31556702 C30.74176727 22.31273712 29.63479492 22.30990723 28.49427795 22.30699158 C24.94826075 22.29576971 21.40249337 22.27066142 17.85655212 22.24525452 C15.45681618 22.23522731 13.05707629 22.22610102 10.65733337 22.21791077 C4.76532062 22.19582384 -1.12654578 22.16232658 -7.01844788 22.12025452 C-7.89423268 18.96588393 -8.01687293 17.19976396 -7.05751038 14.04603577 C-6.8332135 13.29644592 -6.60891663 12.54685608 -6.37782288 11.77455139 C-6.13547913 11.00175842 -5.89313538 10.22896545 -5.64344788 9.43275452 C-5.4088385 8.64835999 -5.17422913 7.86396545 -4.93251038 7.05580139 C-2.83731615 0.16904082 -2.83731615 0.16904082 0 0 Z " fill="#FEFEFE" transform="translate(241.01844787597656,192.87974548339844)"/>
<path d="M0 0 C0.99 0.33 1.98 0.66 3 1 C-2.98994053 6.49077882 -10.26270451 11.4209015 -18 14 C-18.67030774 15.9975795 -18.67030774 15.9975795 -19.0625 18.5 C-21.02545436 26.42338347 -25.39788997 32.81345682 -29.61523438 39.70019531 C-31.93999482 43.56113386 -34.12866827 47.49563596 -36.3125 51.4375 C-36.70832275 52.14592041 -37.10414551 52.85434082 -37.51196289 53.58422852 C-39.64762552 57.43666463 -41.68219975 61.32634734 -43.64526367 65.26977539 C-44.30989876 66.60353966 -44.30989876 66.60353966 -44.98796082 67.96424866 C-45.32193375 68.6360466 -45.65590668 69.30784454 -46 70 C-34.22144393 70.04633607 -22.44290954 70.08187573 -10.66428089 70.10362434 C-5.19501845 70.11406246 0.27418164 70.12822229 5.7434082 70.15087891 C11.02129543 70.17260612 16.29912267 70.18456842 21.57705116 70.18975449 C23.59088396 70.19345045 25.60471347 70.20066767 27.61852074 70.21146011 C30.4387052 70.2259733 33.25864164 70.227978 36.07885742 70.22705078 C37.32826866 70.23783661 37.32826866 70.23783661 38.60292053 70.24884033 C42.91060574 70.23351049 46.03455684 69.86013246 50 68 C52.8125 67.875 52.8125 67.875 55 68 C51.96477791 71.22856554 49.66755471 72.28633515 45.35005188 72.48774719 C43.44736335 72.50235734 41.54442759 72.49485525 39.6418457 72.4699707 C38.60069611 72.4721611 37.55954651 72.4743515 36.48684692 72.47660828 C33.0495007 72.47891767 29.61301311 72.45267563 26.17578125 72.42578125 C23.788755 72.42085802 21.4017249 72.4175587 19.01469421 72.41581726 C14.01544849 72.40817843 9.01648918 72.38761777 4.01733398 72.35668945 C-2.402335 72.31705054 -8.82181784 72.2990704 -15.24159527 72.28938007 C-21.35249516 72.27942474 -27.46334922 72.25952384 -33.57421875 72.23828125 C-34.74610937 72.2348855 -35.91799999 72.23148975 -37.12540245 72.2279911 C-40.42700077 72.21645834 -43.72847891 72.19794538 -47.0300293 72.17700195 C-48.50825417 72.1729686 -48.50825417 72.1729686 -50.01634216 72.16885376 C-50.91218018 72.16169846 -51.80801819 72.15454315 -52.73100281 72.14717102 C-53.51171992 72.14289754 -54.29243704 72.13862406 -55.09681225 72.13422108 C-57 72 -57 72 -59 71 C-57.31069276 65.00698145 -54.39706281 59.72494235 -51.5 54.25 C-50.96826172 53.23953613 -50.43652344 52.22907227 -49.88867188 51.18798828 C-46.47411278 44.7241343 -43.02164682 38.28117127 -39.5 31.875 C-39.10361328 31.14829102 -38.70722656 30.42158203 -38.29882812 29.67285156 C-37.92177734 28.99448242 -37.54472656 28.31611328 -37.15625 27.6171875 C-36.83462891 27.03565918 -36.51300781 26.45413086 -36.18164062 25.85498047 C-32.98002475 20.82897274 -29.72170869 17.91291471 -24.58984375 14.86328125 C-23.9811293 14.49776657 -23.37241486 14.13225189 -22.74525452 13.75566101 C-20.81455774 12.59891448 -18.8763774 11.45547052 -16.9375 10.3125 C-15.63162862 9.53409633 -14.32628443 8.75480753 -13.02148438 7.97460938 C-10.63335478 6.5468343 -8.2418851 5.12543773 -5.84741211 3.70825195 C-3.86822583 2.52087595 -1.92040382 1.28026921 0 0 Z " fill="#7BFDFE" transform="translate(112,211)"/>
<path d="M0 0 C2.8125 -0.3125 2.8125 -0.3125 6 0 C8.61515753 3.58917029 10.11841684 7.55510981 11.6875 11.6875 C12.12449219 12.82574219 12.56148438 13.96398437 13.01171875 15.13671875 C14 18 14 18 14 20 C16.5388806 18.7305597 16.64400351 17.8560924 17.65625 15.25390625 C17.95660156 14.49916016 18.25695312 13.74441406 18.56640625 12.96679688 C18.87449219 12.17337891 19.18257813 11.37996094 19.5 10.5625 C20.10990177 8.99946723 20.7242952 7.43817767 21.34375 5.87890625 C21.74883789 4.83585327 21.74883789 4.83585327 22.16210938 3.77172852 C23 2 23 2 25 0 C27.5625 -0.1875 27.5625 -0.1875 30 0 C31 1 31 1 31.11352539 4.05102539 C31.11336634 5.39991271 31.10767612 6.74880614 31.09765625 8.09765625 C31.0962413 8.80651474 31.09482635 9.51537323 31.09336853 10.24571228 C31.08775443 12.51801712 31.07519963 14.79022475 31.0625 17.0625 C31.05748681 18.59960796 31.05292359 20.13671745 31.04882812 21.67382812 C31.03778042 25.44925642 31.02050641 29.22461171 31 33 C29.34385343 33.38218767 27.67542976 33.71395102 26 34 C23.88074396 31.88074396 24.58168983 27.3803907 24.4375 24.4375 C24.39431641 23.63119141 24.35113281 22.82488281 24.30664062 21.99414062 C24.20024738 19.99631195 24.09959112 17.9981793 24 16 C23.65066406 16.92683594 23.30132812 17.85367187 22.94140625 18.80859375 C22.48636719 20.00613281 22.03132813 21.20367187 21.5625 22.4375 C21.11003906 23.63246094 20.65757812 24.82742188 20.19140625 26.05859375 C19 29 19 29 18 30 C16.33382885 30.04063832 14.66611905 30.042721 13 30 C10.04465598 25.1083961 7.8925308 20.39371278 6 15 C6.02320313 16.12019531 6.04640625 17.24039062 6.0703125 18.39453125 C6.08907237 19.86718084 6.10727234 21.33983763 6.125 22.8125 C6.14175781 23.55048828 6.15851563 24.28847656 6.17578125 25.04882812 C6.21074628 28.91246426 6.19397555 30.70903668 4 34 C2.0625 33.625 2.0625 33.625 0 33 C-1.39471542 30.21056915 -1.12973765 27.90239581 -1.1328125 24.78515625 C-1.13410156 23.54185547 -1.13539063 22.29855469 -1.13671875 21.01757812 C-1.13285156 19.71240234 -1.12898438 18.40722656 -1.125 17.0625 C-1.12886719 15.76119141 -1.13273437 14.45988281 -1.13671875 13.11914062 C-1.13542969 11.87455078 -1.13414062 10.62996094 -1.1328125 9.34765625 C-1.13168457 8.20304932 -1.13055664 7.05844238 -1.12939453 5.87915039 C-1 3 -1 3 0 0 Z " fill="#FDFDFD" transform="translate(349,284)"/>
<path d="M0 0 C3.70501416 1.26272932 5.24683652 3.37025477 7.375 6.5625 C8.27025391 7.89087891 8.27025391 7.89087891 9.18359375 9.24609375 C9.78300781 10.15488281 10.38242187 11.06367188 11 12 C11.58910156 12.87785156 12.17820312 13.75570313 12.78515625 14.66015625 C14.19830033 16.76817969 15.60130213 18.88238592 17 21 C16.99214478 20.14450562 16.99214478 20.14450562 16.98413086 19.27172852 C16.96341779 16.70199677 16.9503581 14.13228253 16.9375 11.5625 C16.92912109 10.66466797 16.92074219 9.76683594 16.91210938 8.84179688 C16.90727539 7.56079102 16.90727539 7.56079102 16.90234375 6.25390625 C16.89448853 5.06776733 16.89448853 5.06776733 16.88647461 3.85766602 C17 2 17 2 18 1 C20.5 0.875 20.5 0.875 23 1 C25.47487711 3.47487711 24.17337232 9.5408112 24.18554688 13.00976562 C24.18542603 14.09898315 24.18542603 14.09898315 24.18530273 15.21020508 C24.18748751 17.42483782 24.20563531 19.63897123 24.22460938 21.85351562 C24.22754356 23.25520662 24.22952819 24.6569 24.23046875 26.05859375 C24.23457764 27.34048584 24.23868652 28.62237793 24.24291992 29.94311523 C24 33 24 33 22 35 C18.74501877 34.87318255 17.40089804 34.42807757 15.15625 32.03125 C14.33640625 30.77828125 14.33640625 30.77828125 13.5 29.5 C12.91089844 28.60539062 12.32179688 27.71078125 11.71484375 26.7890625 C9.33823209 22.92368499 7.13206496 19.00569781 5 15 C4.67 21.27 4.34 27.54 4 34 C1.525 34.495 1.525 34.495 -1 35 C-3.69146067 28.08643881 -3.00810414 21.36829589 -2.625 14.0625 C-2.56828125 12.80630859 -2.5115625 11.55011719 -2.453125 10.25585938 C-2.31232266 7.1699415 -2.1609745 4.08492042 -2 1 C-1.34 0.67 -0.68 0.34 0 0 Z " fill="#FEFEFE" transform="translate(388,283)"/>
<path d="M0 0 C2.37570543 -0.0816082 4.74855841 -0.14077222 7.125 -0.1875 C7.79015625 -0.21263672 8.4553125 -0.23777344 9.140625 -0.26367188 C13.87034143 -0.33322653 16.98291808 0.52562274 21 3 C23.63009453 6.34739304 23.29416978 9.88162305 23 14 C21.98263229 16.76142665 21.63829259 17.68085371 19 19 C19.39415012 22.38969107 19.81284346 24.6976702 21.625 27.625 C23 30 23 30 22.6875 32.3125 C22.460625 32.869375 22.23375 33.42625 22 34 C19.6875 33.84375 19.6875 33.84375 17 33 C15.20052303 30.26617922 13.97566281 27.44634755 12.625 24.46875 C11.21185486 21.75540499 11.21185486 21.75540499 8.3125 21.15625 C7.1678125 21.07890625 7.1678125 21.07890625 6 21 C6.02320313 21.77085937 6.04640625 22.54171875 6.0703125 23.3359375 C6.09738281 24.84027344 6.09738281 24.84027344 6.125 26.375 C6.14820313 27.37273437 6.17140625 28.37046875 6.1953125 29.3984375 C6 32 6 32 4 34 C1.9375 33.8125 1.9375 33.8125 0 33 C-1.10983333 29.6705 -1.12935751 27.15841357 -1.1328125 23.65234375 C-1.13410156 22.40775391 -1.13539063 21.16316406 -1.13671875 19.88085938 C-1.13285156 18.57955078 -1.12898437 17.27824219 -1.125 15.9375 C-1.12886719 14.63232422 -1.13273438 13.32714844 -1.13671875 11.98242188 C-1.13542969 10.73912109 -1.13414062 9.49582031 -1.1328125 8.21484375 C-1.13168457 7.07136475 -1.13055664 5.92788574 -1.12939453 4.74975586 C-1 2 -1 2 0 0 Z M6 6 C6 8.97 6 11.94 6 15 C8.97 15 11.94 15 15 15 C16.87543354 11.13236554 16.87543354 11.13236554 16 7 C13.71294169 5.85647084 12.40735238 5.89665561 9.875 5.9375 C7.956875 5.9684375 7.956875 5.9684375 6 6 Z " fill="#FEFEFE" transform="translate(583,284)"/>
<path d="M0 0 C0.99 0.33 1.98 0.66 3 1 C3.01981934 1.7113208 3.03963867 2.4226416 3.06005859 3.15551758 C3.15524867 6.37488816 3.26495229 9.5936045 3.375 12.8125 C3.4059375 13.93205078 3.436875 15.05160156 3.46875 16.20507812 C3.50742187 17.27822266 3.54609375 18.35136719 3.5859375 19.45703125 C3.6173584 20.44678955 3.6487793 21.43654785 3.68115234 22.45629883 C3.83773433 25.24075094 3.83773433 25.24075094 6 28 C9.54187831 28.33338596 9.54187831 28.33338596 13 28 C14.74039809 26.25960191 14.21193023 23.83889635 14.28125 21.46875 C14.31863281 20.34855469 14.35601563 19.22835938 14.39453125 18.07421875 C14.42933594 16.89472656 14.46414063 15.71523438 14.5 14.5 C14.56854901 12.17695034 14.64123531 9.85401778 14.71875 7.53125 C14.74904297 6.49548828 14.77933594 5.45972656 14.81054688 4.39257812 C15 2 15 2 16 1 C18.5 0.875 18.5 0.875 21 1 C23.51663793 3.51663793 22.23429203 10.30832216 22.25 13.6875 C22.270625 14.77740234 22.29125 15.86730469 22.3125 16.99023438 C22.36182168 27.11967433 22.36182168 27.11967433 19 32 C15.32703478 35.24085166 11.86665008 35.45375707 7.15234375 35.296875 C3.1466478 34.74436521 0.7792459 32.7792459 -2 30 C-3.76399878 24.88102747 -3.22500692 19.21726988 -3.25 13.875 C-3.270625 12.76511719 -3.29125 11.65523438 -3.3125 10.51171875 C-3.31765625 9.45339844 -3.3228125 8.39507812 -3.328125 7.3046875 C-3.34214355 5.8503833 -3.34214355 5.8503833 -3.35644531 4.36669922 C-3.23881836 3.58568848 -3.12119141 2.80467773 -3 2 C-2.01 1.34 -1.02 0.68 0 0 Z " fill="#FEFEFE" transform="translate(556,283)"/>
<path d="M0 0 C1.670625 0.061875 1.670625 0.061875 3.375 0.125 C2.375 2.125 2.375 2.125 -0.5625 3.3125 C-3.92341048 4.87062719 -3.92341048 4.87062719 -4.875 8.4375 C-5.1225 9.654375 -5.37 10.87125 -5.625 12.125 C-6.28072791 14.12861307 -6.94375294 16.12991933 -7.625 18.125 C-8.285 18.125 -8.945 18.125 -9.625 18.125 C-10.12 20.6 -10.12 20.6 -10.625 23.125 C-11.285 23.125 -11.945 23.125 -12.625 23.125 C-13.12 24.61 -13.12 24.61 -13.625 26.125 C-14.285 26.125 -14.945 26.125 -15.625 26.125 C-17.9140962 29.03839517 -19.48740953 31.2404898 -20.0625 34.9375 C-20.71684545 38.64545757 -22.08771662 41.01866756 -23.97265625 44.2421875 C-26.10548137 47.96328665 -28.07574945 51.76197572 -30.0625 55.5625 C-33.02292603 61.19743319 -36.07291439 66.73489068 -39.43359375 72.14453125 C-40.60905474 74.09849427 -41.61075322 76.0833527 -42.625 78.125 C-44.09023846 80.94484591 -45.57741101 83.7530667 -47.0625 86.5625 C-47.45759766 87.31337891 -47.85269531 88.06425781 -48.25976562 88.83789062 C-51.42224892 94.82082491 -54.83855032 100.51060909 -58.625 106.125 C-55.94971874 106.125 -54.08933262 105.1565811 -51.625 104.125 C-46.84722222 102.125 -46.84722222 102.125 -44.625 102.125 C-44.625 102.785 -44.625 103.445 -44.625 104.125 C-47.03742713 105.30120825 -49.45427691 106.4660956 -51.875 107.625 C-52.55691406 107.95886719 -53.23882812 108.29273438 -53.94140625 108.63671875 C-57.4770992 110.31874744 -59.64429286 111.125 -63.625 111.125 C-63.03246589 107.34089053 -61.94143365 104.47810381 -60.10546875 101.125 C-59.583479 100.16553467 -59.06148926 99.20606934 -58.52368164 98.2175293 C-57.67664673 96.68672729 -57.67664673 96.68672729 -56.8125 95.125 C-56.23298584 94.06643799 -55.65347168 93.00787598 -55.05639648 91.91723633 C-50.71067107 84.00975035 -46.27323228 76.15511945 -41.76049805 68.34179688 C-36.6504919 59.49251957 -31.80177324 50.52388445 -27.1340332 41.43383789 C-22.07450264 31.58594936 -16.87714061 21.83109086 -11.4375 12.1875 C-10.88505615 11.20491211 -10.3326123 10.22232422 -9.76342773 9.20996094 C-9.24981689 8.30665039 -8.73620605 7.40333984 -8.20703125 6.47265625 C-7.75561768 5.67867432 -7.3042041 4.88469238 -6.83911133 4.06665039 C-4.70429362 0.65257332 -4.18661024 0.14436587 0 0 Z " fill="#87FDFD" transform="translate(152.625,105.875)"/>
<path d="M0 0 C2.3125 -0.25 2.3125 -0.25 5 0 C8.9480928 4.33170048 10.31719253 9.93656526 12.1875 15.375 C12.55552734 16.40367187 12.92355469 17.43234375 13.30273438 18.4921875 C13.65013672 19.4925 13.99753906 20.4928125 14.35546875 21.5234375 C14.67153076 22.43013184 14.98759277 23.33682617 15.31323242 24.27099609 C16.06838965 27.27175953 16.11919933 29.91780536 16 33 C14.02 33.495 14.02 33.495 12 34 C9.125 29.25 9.125 29.25 8 27 C5.41394668 26.5316735 5.41394668 26.5316735 2.4375 26.375 C1.42558594 26.30023438 0.41367187 26.22546875 -0.62890625 26.1484375 C-1.80259766 26.07496094 -1.80259766 26.07496094 -3 26 C-3.66 28.31 -4.32 30.62 -5 33 C-7.475 33.495 -7.475 33.495 -10 34 C-11.30478485 30.36859797 -10.67595145 28.17194728 -9.453125 24.5703125 C-9.1025 23.52746094 -8.751875 22.48460937 -8.390625 21.41015625 C-7.82601563 19.78400391 -7.82601563 19.78400391 -7.25 18.125 C-6.8890625 17.04863281 -6.528125 15.97226562 -6.15625 14.86328125 C-4.40449953 9.71592753 -2.62471642 4.7676811 0 0 Z M2 10 C1.01 13.3 0.02 16.6 -1 20 C1.31 20 3.62 20 6 20 C5.71125 18.72125 5.4225 17.4425 5.125 16.125 C4.96257812 15.40570313 4.80015625 14.68640625 4.6328125 13.9453125 C4.09525572 11.79280036 4.09525572 11.79280036 2 10 Z " fill="#FEFEFE" transform="translate(496,284)"/>
<path d="M0 0 C16 0 16 0 21 3 C23.73817998 6.1945433 24 7.73679083 24 12 C23.28721779 16.2366493 21.34877008 18.30464847 18 21 C15.47524538 22.26237731 13.68799534 22.09856404 10.875 22.0625 C9.26625 22.041875 7.6575 22.02125 6 22 C6 25.63 6 29.26 6 33 C2 34 2 34 0 33 C0 22.11 0 11.22 0 0 Z M6 7 C5.92820036 8.51928038 5.91607993 10.04167482 5.9375 11.5625 C5.94652344 12.38878906 5.95554687 13.21507812 5.96484375 14.06640625 C5.97644531 14.70449219 5.98804688 15.34257812 6 16 C7.8871875 16.061875 7.8871875 16.061875 9.8125 16.125 C10.52019531 16.14820313 11.22789062 16.17140625 11.95703125 16.1953125 C14.31359719 16.13254462 14.31359719 16.13254462 17 14 C17.41666667 11 17.41666667 11 17 8 C15.2412636 5.8297208 15.2412636 5.8297208 13.08984375 5.76953125 C9.23314049 5.46245968 9.23314049 5.46245968 6 7 Z " fill="#FEFEFE" transform="translate(527,284)"/>
<path d="M0 0 C14.69882491 -0.02333956 29.39764738 -0.04098439 44.09648705 -0.05181217 C50.92110182 -0.05697288 57.7457051 -0.06401129 64.5703125 -0.07543945 C71.15143433 -0.08645465 77.73254731 -0.09227777 84.31367874 -0.09487724 C86.82958795 -0.0967307 89.34549647 -0.10034981 91.8614006 -0.10573006 C95.37424913 -0.11294622 98.88704765 -0.11399069 102.39990234 -0.11352539 C103.44934525 -0.11712067 104.49878815 -0.12071594 105.58003235 -0.12442017 C106.53358109 -0.1230455 107.48712982 -0.12167084 108.46957397 -0.12025452 C109.71675988 -0.12163721 109.71675988 -0.12163721 110.98914146 -0.12304783 C113 0 113 0 115 1 C115 1.99 115 2.98 115 4 C113.078125 5.3671875 113.078125 5.3671875 110.25 6.875 C104.3528712 10.16203866 98.70470299 13.73069151 93.0625 17.4375 C85.45120536 22.4247279 77.78922588 27.29519386 70 32 C69.505 30.515 69.505 30.515 69 29 C70.28813342 28.16121545 71.58063256 27.32913217 72.875 26.5 C73.59429687 26.0359375 74.31359375 25.571875 75.0546875 25.09375 C77 24 77 24 79 24 C79 23.34 79 22.68 79 22 C80.78881736 20.99491199 82.58114696 19.99607264 84.375 19 C85.37273437 18.443125 86.37046875 17.88625 87.3984375 17.3125 C90 16 90 16 92 16 C92 15.34 92 14.68 92 14 C95.05229584 12.07414667 98.20815815 10.38628397 101.375 8.65625 C102.24125 8.1096875 103.1075 7.563125 104 7 C104 6.34 104 5.68 104 5 C101.76292333 3.88146167 100.38623604 3.82080917 97.90234375 3.71875 C96.70061523 3.66267578 96.70061523 3.66267578 95.47460938 3.60546875 C93.77930361 3.53499415 92.08399106 3.46468239 90.38867188 3.39453125 C84.10065115 3.10065115 84.10065115 3.10065115 83 2 C81.00200428 1.90126184 79.00042842 1.87028201 77 1.875 C75.906875 1.87242188 74.81375 1.86984375 73.6875 1.8671875 C71.08169646 1.69452245 71.08169646 1.69452245 70 3 C68.65269292 3.09801724 67.30032993 3.12798165 65.94946289 3.12939453 C65.08668228 3.13254669 64.22390167 3.13569885 63.3349762 3.13894653 C61.91812782 3.13591019 61.91812782 3.13591019 60.47265625 3.1328125 C59.49574326 3.13376923 58.51883026 3.13472595 57.51231384 3.13571167 C55.42821184 3.1363947 53.34410773 3.13453193 51.26000977 3.13037109 C48.13487659 3.12512158 45.00989369 3.13026033 41.88476562 3.13671875 C32.53629614 3.14026249 23.20741352 3.06299939 13.87109375 2.5546875 C13.15558853 2.51594513 12.44008331 2.47720276 11.70289612 2.43728638 C7.74666728 2.19258717 3.8967956 1.72299157 0 1 C0 0.67 0 0.34 0 0 Z " fill="#5EFDFE" transform="translate(177,106)"/>
<path d="M0 0 C0.85395355 -0.00274933 1.7079071 -0.00549866 2.58773804 -0.0083313 C3.98819618 0.00245453 3.98819618 0.00245453 5.41694641 0.01345825 C6.40249512 0.0131662 7.38804382 0.01287415 8.40345764 0.01257324 C11.66626236 0.01396837 14.92883971 0.02953831 18.19160461 0.04519653 C20.45176061 0.04892601 22.71191822 0.05177329 24.97207642 0.05377197 C30.92497714 0.06141356 36.87778049 0.08106663 42.8306427 0.10317993 C48.9034239 0.12362701 54.9762208 0.13277126 61.04902649 0.14285278 C72.96768909 0.16431197 84.88627939 0.1984543 96.80488586 0.24050903 C97.29988586 1.72550903 97.29988586 1.72550903 97.80488586 3.24050903 C92.64151792 5.2604377 87.47401955 7.26923635 82.30293274 9.26931763 C79.95074687 10.18380115 77.60406836 11.11122395 75.25801086 12.04129028 C73.85714336 12.58731023 72.45610953 13.13290372 71.05488586 13.67800903 C70.41293274 13.9366272 69.77097961 14.19524536 69.10957336 14.46170044 C65.1990549 15.96630129 61.98556993 16.50340481 57.80488586 16.24050903 C60.72968385 13.83944107 63.40106394 12.4927701 66.97285461 11.26785278 C67.9480304 10.92560669 68.92320618 10.5833606 69.92793274 10.23074341 C71.98258352 9.52490735 74.03727144 8.81917939 76.09199524 8.11355591 C77.06330383 7.77259888 78.03461243 7.43164185 79.03535461 7.08035278 C79.9263385 6.7747644 80.81732239 6.46917603 81.73530579 6.15432739 C83.97718326 5.42722644 83.97718326 5.42722644 84.80488586 3.24050903 C83.28919006 3.24836426 83.28919006 3.24836426 81.74287415 3.25637817 C52.08425185 3.39513581 22.45491758 2.93424966 -7.19511414 2.24050903 C-4.10617344 0.18121524 -3.48559611 -0.00865987 0 0 Z " fill="#64FDFE" transform="translate(123.19511413574219,256.7594909667969)"/>
<path d="M0 0 C3.07456913 1.47512158 5.34751581 2.99823629 7.8125 5.375 C8.43769531 5.96023437 9.06289062 6.54546875 9.70703125 7.1484375 C11 9 11 9 10.8828125 11.0859375 C9.44788824 14.19705647 6.89690987 15.34462293 4 17 C3.34 17 2.68 17 2 17 C2 17.66 2 18.32 2 19 C-0.08984375 20.734375 -0.08984375 20.734375 -2.9375 22.75 C-3.93265625 23.45640625 -4.9278125 24.1628125 -5.953125 24.890625 C-9.93451428 27.64697143 -13.94335774 30.35567023 -18 33 C-18.66 32.67 -19.32 32.34 -20 32 C-18.51583664 27.7971503 -16.35502736 24.27024748 -13.8671875 20.60546875 C-13.47048859 20.01325027 -13.07378967 19.4210318 -12.66506958 18.81086731 C-11.40604397 16.93345918 -10.14064406 15.06045101 -8.875 13.1875 C-8.0165014 11.90979112 -7.15842394 10.63179917 -6.30078125 9.35351562 C-4.20538052 6.23237998 -2.10425497 3.11517229 0 0 Z " fill="#5FFCFE" transform="translate(182,38)"/>
<path d="M0 0 C7.92 0 15.84 0 24 0 C24.33 1.65 24.66 3.3 25 5 C24 6 24 6 16 7 C15.67 15.58 15.34 24.16 15 33 C13.02 33.495 13.02 33.495 11 34 C9 32 9 32 8.77294922 29.38623047 C8.78865967 27.7680542 8.78865967 27.7680542 8.8046875 26.1171875 C8.81435547 24.36728516 8.81435547 24.36728516 8.82421875 22.58203125 C8.84097656 21.35871094 8.85773438 20.13539063 8.875 18.875 C8.88402344 17.64394531 8.89304687 16.41289062 8.90234375 15.14453125 C8.92597452 12.09616185 8.95891946 9.04817618 9 6 C6.03 6 3.06 6 0 6 C0 4.02 0 2.04 0 0 Z " fill="#FEFEFE" transform="translate(426,284)"/>
<path d="M0 0 C1.60656866 3.83233096 3.2098167 7.66604274 4.8125 11.5 C5.49022461 13.11648437 5.49022461 13.11648437 6.18164062 14.765625 C8.56597477 20.47410383 10.87728156 26.18897011 13 32 C9 32 9 32 7.2800293 30.64233398 C6.71711182 30.01657471 6.15419434 29.39081543 5.57421875 28.74609375 C4.62579102 27.7106543 4.62579102 27.7106543 3.65820312 26.65429688 C3.00787109 25.92275391 2.35753906 25.19121094 1.6875 24.4375 C0.40090163 23.01847678 -0.88685283 21.60050088 -2.17578125 20.18359375 C-3.11671631 19.13341064 -3.11671631 19.13341064 -4.07666016 18.06201172 C-6.52855279 15.43333881 -9.15294038 13.01528666 -11.83666992 10.62524414 C-13 9 -13 9 -12.79150391 6.89135742 C-11.74236412 4.38435992 -10.49942639 3.63972941 -8.1875 2.25 C-7.15689453 1.60804687 -7.15689453 1.60804687 -6.10546875 0.953125 C-4 0 -4 0 0 0 Z " fill="#FDFEFE" transform="translate(130,35)"/>
<path d="M0 0 C1.67542976 0.28604898 3.34385343 0.61781233 5 1 C5.05819473 5.06243957 5.09366215 9.12477146 5.125 13.1875 C5.14175781 14.33798828 5.15851563 15.48847656 5.17578125 16.67382812 C5.18222656 17.78564453 5.18867188 18.89746094 5.1953125 20.04296875 C5.20578613 21.06414795 5.21625977 22.08532715 5.22705078 23.13745117 C4.98668291 26.16789552 4.35574765 28.28880007 3 31 C-0.44753201 33.94054201 -3.64710713 34.59358097 -8.0625 34.41796875 C-11.51548485 33.67307081 -13.01642601 31.78940092 -15 29 C-15.3125 26.1875 -15.3125 26.1875 -15 24 C-13.68 23.67 -12.36 23.34 -11 23 C-10.4121875 23.99 -10.4121875 23.99 -9.8125 25 C-8.14583333 27.29166667 -8.14583333 27.29166667 -5.3125 27.25 C-4.549375 27.1675 -3.78625 27.085 -3 27 C-1.71552521 24.43105043 -1.80678666 22.46297624 -1.71875 19.58984375 C-1.66267578 17.98206055 -1.66267578 17.98206055 -1.60546875 16.34179688 C-1.53503535 14.06836312 -1.46472326 11.7949256 -1.39453125 9.52148438 C-1.33845703 7.91563477 -1.33845703 7.91563477 -1.28125 6.27734375 C-1.25095703 5.28984131 -1.22066406 4.30233887 -1.18945312 3.28491211 C-1 1 -1 1 0 0 Z " fill="#FEFEFE" transform="translate(478,284)"/>
<path d="M0 0 C0.99 0.33 1.98 0.66 3 1 C4 5 4 5 4 14 C-6.89 14 -17.78 14 -29 14 C-29 13.01 -29 12.02 -29 11 C-28.19256348 10.70230713 -27.38512695 10.40461426 -26.55322266 10.09790039 C-23.55988258 8.99367229 -20.56692305 7.88842063 -17.57421875 6.7824707 C-16.27847228 6.30386896 -14.98257459 5.82567643 -13.68652344 5.34790039 C-11.82447308 4.66139408 -9.96300928 3.97329748 -8.1015625 3.28515625 C-6.98088379 2.87144775 -5.86020508 2.45773926 -4.70556641 2.03149414 C-2.08341085 1.08305797 -2.08341085 1.08305797 0 0 Z " fill="#76FAFE" transform="translate(195,74)"/>
<path d="M0 0 C1.16740723 0.01078583 1.16740723 0.01078583 2.35839844 0.02178955 C3.58778641 0.02135147 3.58778641 0.02135147 4.8420105 0.02090454 C7.55835458 0.02230089 10.27442633 0.03787632 12.99072266 0.05352783 C14.87116343 0.05725688 16.75160615 0.06010436 18.63204956 0.06210327 C23.58707013 0.06974826 28.5419739 0.08940415 33.49694824 0.11151123 C38.55084655 0.13195105 43.6047637 0.14110099 48.65869141 0.15118408 C58.57931571 0.17264924 68.49985323 0.20679559 78.42041016 0.24884033 C78.42041016 0.57884033 78.42041016 0.90884033 78.42041016 1.24884033 C77.26283203 1.30942627 76.10525391 1.37001221 74.91259766 1.43243408 C73.37352559 1.51689535 71.83446361 1.60154051 70.29541016 1.68634033 C69.53486328 1.72565674 68.77431641 1.76497314 67.99072266 1.80548096 C66.86923828 1.86832275 66.86923828 1.86832275 65.72509766 1.93243408 C65.04431152 1.9690918 64.36352539 2.00574951 63.66210938 2.04351807 C61.32571347 2.22339199 61.32571347 2.22339199 58.67285156 2.75457764 C55.4348906 3.24663979 52.41241141 3.36915569 49.13964844 3.36236572 C47.91883575 3.36229019 46.69802307 3.36221466 45.44021606 3.36213684 C44.13688324 3.35697556 42.83355042 3.35181427 41.49072266 3.34649658 C40.13166354 3.34462934 38.77260374 3.34320688 37.4135437 3.34220886 C33.8527233 3.33840781 30.29194429 3.32859835 26.73114014 3.31750488 C23.09111084 3.30723868 19.45107479 3.30270012 15.81103516 3.29766846 C8.68080999 3.28697372 1.55061279 3.26992655 -5.57958984 3.24884033 C-5.71154755 3.86549057 -5.84350525 4.48214081 -5.97946167 5.11747742 C-6.15542877 5.92709427 -6.33139587 6.73671112 -6.51269531 7.57086182 C-6.68590302 8.37313705 -6.85911072 9.17541229 -7.03756714 10.0019989 C-7.6625778 12.5928495 -8.5595567 14.90677073 -9.70458984 17.31134033 C-10.05779297 18.06544189 -10.41099609 18.81954346 -10.77490234 19.59649658 C-11.04044922 20.14177002 -11.30599609 20.68704346 -11.57958984 21.24884033 C-12.23958984 21.24884033 -12.89958984 21.24884033 -13.57958984 21.24884033 C-12.86118286 17.01104635 -11.57921213 13.10831082 -10.14208984 9.06134033 C-9.71025391 7.83028564 -9.27841797 6.59923096 -8.83349609 5.33087158 C-6.78284056 0.29047526 -5.24327878 0.02031673 0 0 Z " fill="#56FEFE" transform="translate(129.57958984375,213.75115966796875)"/>
<path d="M0 0 C2.5 0.125 2.5 0.125 3.5 1.125 C3.60008391 3.23507088 3.63081127 5.34849533 3.6328125 7.4609375 C3.63410156 8.75257813 3.63539063 10.04421875 3.63671875 11.375 C3.63462402 12.05175781 3.6325293 12.72851562 3.63037109 13.42578125 C3.62504026 15.48445064 3.63030701 17.5429001 3.63671875 19.6015625 C3.63542969 20.89578125 3.63414062 22.19 3.6328125 23.5234375 C3.63168457 24.71630371 3.63055664 25.90916992 3.62939453 27.13818359 C3.5 30.125 3.5 30.125 2.5 33.125 C0.5625 33.9375 0.5625 33.9375 -1.5 34.125 C-3.5 32.125 -3.5 32.125 -3.74291992 29.06811523 C-3.73675659 27.1452771 -3.73675659 27.1452771 -3.73046875 25.18359375 C-3.73001053 24.50071793 -3.72955231 23.8178421 -3.7290802 23.11427307 C-3.72605891 21.67097231 -3.71817622 20.22767478 -3.70581055 18.78442383 C-3.6875433 16.56775447 -3.68530093 14.35150242 -3.68554688 12.13476562 C-3.64359839 0.18217992 -3.64359839 0.18217992 0 0 Z " fill="#FEFEFE" transform="translate(518.5,283.875)"/>
<path d="M0 0 C1.67542976 0.28604898 3.34385343 0.61781233 5 1 C5.04938149 5.37823917 5.0857104 9.75633146 5.10986328 14.13476562 C5.11993043 15.6247032 5.13358518 17.11462097 5.15087891 18.60449219 C5.17509653 20.74419028 5.18647564 22.88362753 5.1953125 25.0234375 C5.20578613 26.31169434 5.21625977 27.59995117 5.22705078 28.92724609 C5 32 5 32 3 34 C0.875 33.625 0.875 33.625 -1 33 C-1.02465392 28.46102295 -1.04283789 23.92208457 -1.05493164 19.38305664 C-1.0599714 17.83780234 -1.0668032 16.29255284 -1.07543945 14.74731445 C-1.08752076 12.53074971 -1.09323173 10.31424782 -1.09765625 8.09765625 C-1.10281754 7.4028566 -1.10797882 6.70805695 -1.11329651 5.99220276 C-1.11349277 4.3277067 -1.06189129 2.66334501 -1 1 C-0.67 0.67 -0.34 0.34 0 0 Z " fill="#FEFEFE" transform="translate(418,284)"/>
<path d="M0 0 C9.9 0 19.8 0 30 0 C30.495 1.485 30.495 1.485 31 3 C25.83663206 5.01992866 20.66913369 7.02872732 15.49804688 9.02880859 C13.145861 9.94329212 10.79918249 10.87071492 8.453125 11.80078125 C7.05225749 12.3468012 5.65122367 12.89239469 4.25 13.4375 C3.60804688 13.69611816 2.96609375 13.95473633 2.3046875 14.22119141 C-1.60583096 15.72579226 -4.81931593 16.26289578 -9 16 C-6.12728828 13.65704059 -3.49424915 12.26710317 -0.0078125 11.02734375 C0.94480469 10.68509766 1.89742187 10.34285156 2.87890625 9.99023438 C4.36197266 9.46913086 4.36197266 9.46913086 5.875 8.9375 C6.85597656 8.58623047 7.83695313 8.23496094 8.84765625 7.87304688 C13.54963652 6.1946747 18.26289881 4.57903373 23 3 C15.08 2.67 7.16 2.34 -1 2 C-0.67 1.34 -0.34 0.68 0 0 Z " fill="#6DFEFE" transform="translate(190,257)"/>
<path d="M0 0 C-2.94337804 3.04151183 -5.12844705 4.27616213 -9.2837677 4.48101807 C-11.01313776 4.49257175 -12.74274139 4.48207264 -14.47192383 4.45410156 C-15.41875031 4.45468567 -16.36557678 4.45526978 -17.34109497 4.45587158 C-20.46344966 4.45309002 -23.58484381 4.42199399 -26.70703125 4.390625 C-28.87464374 4.38316289 -31.04226299 4.37746981 -33.20988464 4.37347412 C-38.90972583 4.35821559 -44.60915807 4.31893143 -50.30883789 4.2746582 C-56.12705961 4.23371051 -61.94534753 4.21546415 -67.76367188 4.1953125 C-79.17596073 4.15243776 -90.58794634 4.08418341 -102 4 C-102 3.67 -102 3.34 -102 3 C-100.28778008 2.98786972 -100.28778008 2.98786972 -98.54096985 2.97549438 C-87.78492595 2.89801827 -77.02900831 2.81027512 -66.27312946 2.71247292 C-60.74339114 2.6625217 -55.21367181 2.6161914 -49.68383789 2.578125 C-44.34750367 2.54125758 -39.01132881 2.49489338 -33.67513084 2.44193649 C-31.63900739 2.42340035 -29.60284978 2.40828951 -27.56667519 2.39665604 C-24.71526384 2.37978044 -21.86421686 2.35074185 -19.01293945 2.31884766 C-18.17064789 2.31668747 -17.32835632 2.31452728 -16.46054077 2.31230164 C-10.62666388 2.22891056 -5.71739994 -0.32670857 0 0 Z " fill="#80EDFB" transform="translate(167,279)"/>
<path d="M0 0 C0.66 0.33 1.32 0.66 2 1 C1.38153621 5.91871986 -0.75326348 9.84721354 -3 14.1875 C-3.55300781 15.27321289 -3.55300781 15.27321289 -4.1171875 16.38085938 C-5.07327118 18.25638849 -6.03617609 20.12843676 -7 22 C-7.33 22.66 -7.66 23.32 -8 24 C-5.36 24.33 -2.72 24.66 0 25 C0 25.33 0 25.66 0 26 C-1.62490954 26.02698189 -3.24994633 26.04638757 -4.875 26.0625 C-6.23238281 26.07990234 -6.23238281 26.07990234 -7.6171875 26.09765625 C-10 26 -10 26 -12 25 C-10.37317535 19.29676416 -7.66802013 14.31986097 -4.875 9.125 C-4.40707031 8.24585938 -3.93914063 7.36671875 -3.45703125 6.4609375 C-2.3087907 4.30505729 -1.15636097 2.15153223 0 0 Z " fill="#8EFDFE" transform="translate(65,257)"/>
<path d="M0 0 C0 0.66 0 1.32 0 2 C-10.395 6.455 -10.395 6.455 -21 11 C-20.67 11.99 -20.34 12.98 -20 14 C-23.63 14 -27.26 14 -31 14 C-31 13.01 -31 12.02 -31 11 C-30.19256348 10.70230713 -29.38512695 10.40461426 -28.55322266 10.09790039 C-25.55988258 8.99367229 -22.56692305 7.88842063 -19.57421875 6.7824707 C-18.27847228 6.30386896 -16.98257459 5.82567643 -15.68652344 5.34790039 C-13.82447308 4.66139408 -11.96300928 3.97329748 -10.1015625 3.28515625 C-8.98088379 2.87144775 -7.86020508 2.45773926 -6.70556641 2.03149414 C-1.37704142 0 -1.37704142 0 0 0 Z " fill="#99FEFE" transform="translate(197,74)"/>
<path d="M0 0 C-0.13671875 1.8515625 -0.13671875 1.8515625 -1 4 C-3.51953125 5.2734375 -3.51953125 5.2734375 -6.8125 6.375 C-12.67019241 8.44811937 -18.05799999 10.94641554 -23.5390625 13.86328125 C-26 15 -26 15 -29 15 C-28 12 -28 12 -25.26171875 10.60546875 C-24.08222656 10.13753906 -22.90273437 9.66960937 -21.6875 9.1875 C-15.73683092 6.77494191 -10.02652058 4.07265111 -4.328125 1.1015625 C-2 0 -2 0 0 0 Z " fill="#5EFDFE" transform="translate(137,194)"/>
<path d="M0 0 C9.9 0 19.8 0 30 0 C30.33 0.99 30.66 1.98 31 3 C29.02 3.33 27.04 3.66 25 4 C25 3.34 25 2.68 25 2 C16.42 2 7.84 2 -1 2 C-0.67 1.34 -0.34 0.68 0 0 Z " fill="#71FEFE" transform="translate(190,257)"/>
<path d="M0 0 C0.33 0.66 0.66 1.32 1 2 C-1.39524408 5.76395498 -3.85644429 8.85644429 -7 12 C-7 12.66 -7 13.32 -7 14 C-7.66 14 -8.32 14 -9 14 C-8.938125 14.886875 -8.87625 15.77375 -8.8125 16.6875 C-9.02064474 20.36472369 -9.78206583 22.09962455 -12 25 C-12.66 25 -13.32 25 -14 25 C-15 22 -15 22 -14.22729492 20.0546875 C-13.81584229 19.33539063 -13.40438965 18.61609375 -12.98046875 17.875 C-12.53509766 17.08609375 -12.08972656 16.2971875 -11.63085938 15.484375 C-11.15455078 14.66453125 -10.67824219 13.8446875 -10.1875 13 C-9.72279297 12.18015625 -9.25808594 11.3603125 -8.77929688 10.515625 C-3.44517857 1.14839286 -3.44517857 1.14839286 0 0 Z " fill="#8FFDFE" transform="translate(82,231)"/>
<path d="M0 0 C0.66 0.33 1.32 0.66 2 1 C1.62488281 1.556875 1.24976563 2.11375 0.86328125 2.6875 C-2.52126874 7.73448638 -5.81361546 12.82564989 -9 18 C-8.01 17.34 -7.02 16.68 -6 16 C-5.01 16.33 -4.02 16.66 -3 17 C-7.455 19.475 -7.455 19.475 -12 22 C-13 19 -13 19 -12.02783203 17.02294922 C-11.52622559 16.29092285 -11.02461914 15.55889648 -10.5078125 14.8046875 C-9.96769531 14.00675781 -9.42757812 13.20882812 -8.87109375 12.38671875 C-8.29488281 11.55785156 -7.71867188 10.72898437 -7.125 9.875 C-6.55652344 9.03839844 -5.98804688 8.20179687 -5.40234375 7.33984375 C-1.24067283 1.24067283 -1.24067283 1.24067283 0 0 Z " fill="#72FEFE" transform="translate(175,49)"/>
<path d="M0 0 C1.31625194 2.63250388 0.74813658 3.80179056 0.0625 6.625 C-0.13214844 7.44226563 -0.32679687 8.25953125 -0.52734375 9.1015625 C-0.76130859 10.04128906 -0.76130859 10.04128906 -1 11 C0.32 8.69 1.64 6.38 3 4 C4 7 4 7 2.890625 9.48046875 C2.34921875 10.37378906 1.8078125 11.26710938 1.25 12.1875 C0.71890625 13.08855469 0.1878125 13.98960937 -0.359375 14.91796875 C-1.17148437 15.94857422 -1.17148437 15.94857422 -2 17 C-2.99 17 -3.98 17 -5 17 C-4.46246904 10.81839396 -2.45417612 5.673142 0 0 Z " fill="#C8FCFC" transform="translate(58,245)"/>
<path d="M0 0 C3.10442031 1.3904499 5.3656443 3.01571598 7.8125 5.375 C8.43769531 5.96023437 9.06289062 6.54546875 9.70703125 7.1484375 C11 9 11 9 10.9453125 11.05078125 C9.73081418 13.55505671 8.43773212 14.39079687 6.0625 15.8125 C5.35222656 16.25207031 4.64195312 16.69164063 3.91015625 17.14453125 C3.27980469 17.42683594 2.64945313 17.70914063 2 18 C1.34 17.67 0.68 17.34 0 17 C2.64 15.02 5.28 13.04 8 11 C6.6078125 9.02 6.6078125 9.02 5.1875 7 C4.66542969 6.2575 4.14335937 5.515 3.60546875 4.75 C3.07566406 4.1725 2.54585937 3.595 2 3 C1.01 3 0.02 3 -1 3 C-0.67 2.01 -0.34 1.02 0 0 Z " fill="#79FEFE" transform="translate(182,38)"/>
<path d="M0 0 C4.62 0 9.24 0 14 0 C14 0.99 14 1.98 14 3 C8.51053913 4.12029814 5.16569441 3.79217969 0 2 C0 1.34 0 0.68 0 0 Z " fill="#77FEFE" transform="translate(278,107)"/>
<path d="M0 0 C0.33 0.66 0.66 1.32 1 2 C0.67 2.66 0.34 3.32 0 4 C0.94875 3.484375 1.8975 2.96875 2.875 2.4375 C3.90625 1.963125 4.9375 1.48875 6 1 C6.66 1.33 7.32 1.66 8 2 C3.53763648 6.12768625 -0.2210129 8.10688354 -6 10 C-4.34832443 6.4213696 -2.21713508 3.25179812 0 0 Z " fill="#6AFDFD" transform="translate(171,58)"/>
<path d="M0 0 C1.134375 0.020625 2.26875 0.04125 3.4375 0.0625 C2.4375 2.0625 2.4375 2.0625 -0.4375 3.375 C-3.89194768 5.24040175 -4.74068507 6.69214238 -6.5625 10.0625 C-7.2225 10.0625 -7.8825 10.0625 -8.5625 10.0625 C-8.8925 11.0525 -9.2225 12.0425 -9.5625 13.0625 C-9.8925 12.4025 -10.2225 11.7425 -10.5625 11.0625 C-9.3828125 8.71484375 -9.3828125 8.71484375 -7.6875 6 C-7.13320312 5.10152344 -6.57890625 4.20304687 -6.0078125 3.27734375 C-3.9139664 0.06866608 -3.9139664 0.06866608 0 0 Z " fill="#ACFEFE" transform="translate(152.5625,105.9375)"/>
<path d="M0 0 C8.58 0 17.16 0 26 0 C26 0.33 26 0.66 26 1 C22.04 1 18.08 1 14 1 C14 1.66 14 2.32 14 3 C11.69 3 9.38 3 7 3 C7 2.34 7 1.68 7 1 C4.69 1 2.38 1 0 1 C0 0.67 0 0.34 0 0 Z " fill="#46FEFE" transform="translate(264,106)"/>
<path d="M0 0 C2.97 0 5.94 0 9 0 C9.33 0.99 9.66 1.98 10 3 C8.02 3.33 6.04 3.66 4 4 C4 3.34 4 2.68 4 2 C2.68 2 1.36 2 0 2 C0 1.34 0 0.68 0 0 Z " fill="#99FEFE" transform="translate(211,257)"/>
<path d="M0 0 C0.66 0.33 1.32 0.66 2 1 C1.5206753 5.31392226 0.2542015 7.16569547 -3 10 C-3 5.66905042 -2.03435531 3.72965139 0 0 Z " fill="#96FEFE" transform="translate(65,257)"/>
<path d="M0 0 C0.66 0.33 1.32 0.66 2 1 C-0.64 3.64 -3.28 6.28 -6 9 C-6.33 8.01 -6.66 7.02 -7 6 C-4.74259377 3.66475218 -2.7194239 1.81294927 0 0 Z " fill="#63F7FE" transform="translate(100,221)"/>
<path d="M0 0 C0.66 0.66 1.32 1.32 2 2 C2.99 1.34 3.98 0.68 5 0 C5.99 0.33 6.98 0.66 8 1 C5.03 2.65 2.06 4.3 -1 6 C-1.33 5.01 -1.66 4.02 -2 3 C-1.34 2.01 -0.68 1.02 0 0 Z " fill="#A3FEFE" transform="translate(164,65)"/>
<path d="M0 0 C0 0.66 0 1.32 0 2 C-4.95 3.485 -4.95 3.485 -10 5 C-10 4.34 -10 3.68 -10 3 C-3.375 0 -3.375 0 0 0 Z " fill="#72FEFE" transform="translate(178,274)"/>
<path d="M0 0 C0 0.66 0 1.32 0 2 C-3.63 2 -7.26 2 -11 2 C-7.54930647 -0.30046235 -3.95022851 -1.97511426 0 0 Z " fill="#8BFEFE" transform="translate(199,86)"/>
<path d="M0 0 C0 0.66 0 1.32 0 2 C-4.15267176 5.11450382 -4.15267176 5.11450382 -7.3125 4.6875 C-7.869375 4.460625 -8.42625 4.23375 -9 4 C-7.68 3.67 -6.36 3.34 -5 3 C-5 2.34 -5 1.68 -5 1 C-2 0 -2 0 0 0 Z " fill="#5CFEFE" transform="translate(241,140)"/>
<path d="M0 0 C-1.0625 1.5 -1.0625 1.5 -3 3 C-6.6875 3.1875 -6.6875 3.1875 -10 3 C-6.88378718 -0.11621282 -4.21175599 -0.11383124 0 0 Z " fill="#73FCFE" transform="translate(167,279)"/>
<path d="M0 0 C1.65 0 3.3 0 5 0 C5 0.99 5 1.98 5 3 C3.35 3.66 1.7 4.32 0 5 C0 3.35 0 1.7 0 0 Z " fill="#50CFDA" transform="translate(154,183)"/>
<path d="M0 0 C0.66 0.33 1.32 0.66 2 1 C-2.39453125 5.00390625 -2.39453125 5.00390625 -4 6 C-4.99 5.67 -5.98 5.34 -7 5 C-4.69 3.35 -2.38 1.7 0 0 Z " fill="#7CFEFE" transform="translate(177,59)"/>
</svg>
